Patient4_TMGait_0pt6_02_right_33_EMG.mot
version=1
nRows=13
nColumns=33
inDegrees=no
endheader
time	1LAddLong	2LGlutMax	3LGlutMed	4LIliopsoas	5LSemiMemb	6LBicFemLong	7LRecFem	8LVastMed	9LVastLat	10LGasMed	11LTibAnt	12lTibPost	13LPeroneusLong	14LSol	15LExtDigLong	16LFlexDigLong	17RAddLong	18RGlutMax	19RGlutMed	20RIliopsoas	21RSemiMemb	22RBicFemLong	23RRecFem	24RVastMed	25RVastLat	26RGasMed	27RTibAnt	28RTibPost	29RPeroneusLong	30RSol	31RExtDigLong	32RFlexDigLong
40.13	-0.00351	-0.72067	-0.04715	-0.028076	-0.004272	-0.001678	-0.16769	0.001526	-0.051575	0.054474	-0.12772	-0.023193	-0.096741	0.005646	0.36377	-0.002136	0.016937	-0.40634	-0.3305	-0.025024	-0.13916	-0.40375	-0.19424	0.015106	-0.035858	0.007477	-0.027618	-0.016785	0.85617	-0.44983	-0.003052	-0.005798
40.131	-0.023193	-0.76706	0.012665	-0.016022	0.000916	-0.000916	-0.12466	0.009613	-0.043182	0.072479	-0.021667	-0.025177	-0.1886	0.007324	0.087128	0.01236	0.019379	-0.51819	-0.31494	0.01236	-0.11536	-0.5014	0.07431	0.007324	-0.040741	0.010223	0.011902	-0.019684	-0.26215	-0.38025	-0.001831	-0.014954
40.132	-0.032043	-0.74219	-0.007172	0.005035	0.003052	-0.004578	0.001221	0.00473	-0.031128	0.063782	0.010071	-0.03067	-0.15427	0.007019	0.33066	0.021667	0.01297	-0.5661	-0.11932	0.09964	-0.084534	-0.57587	0.27344	-0.096283	-0.034027	0.00946	0.088348	-0.017242	-0.48126	-0.33814	-0.005188	-0.011292
40.133	-0.018616	-0.72601	-0.07431	-0.001678	-0.002136	0.007172	0.019379	0.009003	-0.00824	0.032043	0.21561	-0.029449	-0.085449	0.06073	0.18005	0.020905	0.013123	-0.699	-0.16007	0.15198	0.021515	-0.60883	0.3685	-0.090027	0.00885	-0.019531	0.18005	-0.021057	0.76157	-0.28061	-0.002594	-0.013428
40.134	-0.014801	-0.69321	-0.056152	-0.013275	0.001984	-0.010376	-0.039673	0.003662	-0.013123	0.007324	0.1004	-0.028839	-0.017242	0.24063	0.32181	0.019226	0.042419	-0.80154	-0.63736	0.1506	0.075684	-0.38986	0.4599	-0.088654	0.042877	-0.021667	0.17685	-0.013123	1.2476	-0.27512	-0.001221	-0.016632
40.135	-0.013123	-0.62988	-0.046692	-0.005188	-0.005341	-0.009766	0.025482	0.006714	0.003052	0.001068	0.071869	-0.027161	0.02594	0.31036	-0.3418	0.006561	0.05661	-0.83054	-0.345	0.12329	0.13443	-0.29266	0.53482	-0.10361	0.098267	-0.023804	0.13123	-0.00885	0.93765	-0.13275	-0.001678	-0.00824
40.136	-0.009308	-0.53955	-0.038452	0.019989	-0.005035	-0.006714	0.066376	0.007782	0.010376	-0.006104	0.020905	-0.03891	0.050201	0.27344	-0.18356	-0.005035	0.003052	-0.85358	-0.069275	0.05188	-0.094604	-0.24109	0.4837	-0.064087	0.038452	-0.025024	0.12405	-0.008392	-0.019989	0.26276	0.005188	-0.018768
40.137	-0.008087	-0.47684	-0.039978	0.024109	-0.006104	0.002441	0.11444	0.009613	0.014801	0.03891	-0.063629	-0.048981	-0.033264	0.20706	-0.19211	-0.017242	-0.04715	-0.96024	0.21423	0.018158	-0.31784	-0.32883	0.59296	-0.00351	-0.043945	0.007172	0.10452	-0.006714	-1.7326	0.22659	-0.003357	-0.016174
40.138	-0.005188	-0.49942	-0.037689	0.010376	0.001831	-0.018311	0.068512	0.006409	0.025177	0.057373	-0.014496	-0.059204	-0.091553	0.16251	-0.14832	-0.025177	0.023499	-1.1145	-0.17731	-0.006104	-0.27695	-0.15198	0.61996	0.06073	-0.09491	0.04303	0.22308	-0.00412	-3.2607	-0.006409	-0.003967	-0.00946
40.139	0.000763	-0.4599	-0.054932	0.027161	-0.000763	-0.029755	0.061646	0.003967	0.031738	0.066986	-0.21042	-0.046234	-0.089874	0.13733	-0.067291	-0.015717	0.020142	-1.1403	-0.44769	0.073242	-0.021362	-0.005341	0.76172	-0.016327	-0.11749	0.029144	0.1358	-0.031586	-2.5171	0.001526	-0.003662	-0.011902
40.14	-0.001221	-0.41794	-0.0737	0.013428	-0.007782	-0.031433	0.12863	0.005341	0.061188	0.067749	-0.2388	-0.067902	-0.081177	0.1152	0.13809	-0.002289	0.030975	-1.2601	-0.40176	0.036163	-0.11475	-0.036011	0.82169	-0.089874	-0.10498	0.016022	0.063629	-0.017395	0.13473	-0.014496	0.001526	-0.018616
40.141	0.002136	-0.37125	-0.067291	0.024109	-0.001068	-0.039673	0.19913	0.009766	0.067444	0.0383	-0.081024	-0.054626	-0.070648	0.10101	0.083618	-0.021515	0.007782	-1.2601	-0.47318	-0.036926	-0.28961	0.059052	0.64789	0.026093	0.005646	0.026245	-0.23422	-0.020905	3.0891	-0.1593	-0.002594	-0.014648
40.142	-0.001068	-0.38971	-0.082855	0.004272	-0.003204	-0.033417	0.17609	0.00946	0.073547	0.041046	0.042572	-0.071106	-0.002441	-0.010681	0.094452	-0.018158	-0.095825	-1.2979	-0.75424	-0.065155	-0.040894	-0.15442	0.55817	0.21622	0.13229	0.034485	0.027466	0.060272	0.97534	-0.098114	-0.002289	-0.016479
